<svg height='100px' width='100px'  fill="#000000" xmlns="http://www.w3.org/2000/svg" data-name="Layer 1" viewBox="0 0 100 100" x="0px" y="0px"><title>Artboard 1 copy 93</title><path d="M75.8,27.46H74V22.87h.78a4,4,0,0,0,4-4V10.64a4,4,0,0,0-4-4H25.22a4,4,0,0,0-4,4v8.19a4,4,0,0,0,4,4H26v4.59H24.2a6,6,0,0,0-6,6v54a6,6,0,0,0,6,6H75.8a6,6,0,0,0,6-6v-54A6,6,0,0,0,75.8,27.46ZM72,9.61h2.79a1,1,0,0,1,1,1v8.19a1,1,0,0,1-1,1H72Zm-6.83,0H69V19.87H65.16Zm-6.83,0h3.83V19.87H58.33Zm-6.83,0h3.83V19.87H51.5Zm-6.83,0H48.5V19.87H44.67Zm-6.83,0h3.83V19.87H37.84ZM31,9.61h3.83V19.87H31ZM29,22.93H71v4.46H29Zm-3.78-3.07a1,1,0,0,1-1-1V10.64a1,1,0,0,1,1-1H28V19.87ZM78.77,87.42a3,3,0,0,1-3,3H24.2a3,3,0,0,1-3-3V79.76H78.77ZM21.3,76.76V44.31H78.7V76.76ZM78.77,41.31H21.23V33.43a3,3,0,0,1,3-3H75.8a3,3,0,0,1,3,3Z"></path><path d="M56.19,48.24a7.36,7.36,0,0,0-10.75,6.87,3.83,3.83,0,0,1-2.16,3.32l-.09.05a8.07,8.07,0,1,0,12.17,6.32s0-.1,0-.14a4.33,4.33,0,0,1,1.48-3.71,7.36,7.36,0,0,0-.62-12.71Zm.48,8.55a4.36,4.36,0,0,1-1.55,1.68l-.15.11c-.13.11-3.23,2.68-2.6,6.52a5.07,5.07,0,1,1-7.69-4A6.82,6.82,0,0,0,48.43,55a4.37,4.37,0,1,1,8.23,1.8Z"></path><path d="M45.19,62.13a4.47,4.47,0,0,0-.61,5.51,1.24,1.24,0,0,0,2.1-1.31A2,2,0,0,1,47,63.87a1.24,1.24,0,1,0-1.77-1.74Z"></path></svg>